<svg xmlns="http://www.w3.org/2000/svg" viewBox="0 0 800 600" role="img" aria-hidden="true">
  <defs>
    <linearGradient id="g" x1="0" y1="0" x2="1" y2="1">
      <stop offset="0%" stop-color="#3a2f78"/>
      <stop offset="100%" stop-color="#5847a8"/>
    </linearGradient>
  </defs>
  <rect width="800" height="600" fill="url(#g)"/>
  <circle cx="656.0" cy="108.0" r="192.0" fill="#ffffff" opacity="0.06"/>
  <circle cx="96.0" cy="528.0" r="132.0" fill="#000000" opacity="0.10"/>
  <g transform="translate(298.0,198.0) scale(8.5)" fill="none" stroke="#ffffff" stroke-width="1.15" stroke-linecap="round" stroke-linejoin="round" opacity="0.88">
    <path d="M5 9h11v6a4 4 0 0 1-4 4H9a4 4 0 0 1-4-4V9z"/><path d="M16 10h1.5a2.5 2.5 0 0 1 0 5H16"/><path d="M8 3c0 1-1 1-1 2"/><path d="M12 3c0 1-1 1-1 2"/>
  </g>
</svg>